<svg xmlns="http://www.w3.org/2000/svg" xmlns:xlink="http://www.w3.org/1999/xlink" width="200" zoomAndPan="magnify" viewBox="0 0 150 149.999998" height="200" preserveAspectRatio="xMidYMid meet" version="1.0"><defs><clipPath id="d0bc1a273c"><path d="M 9.375 2 L 140.625 2 L 140.625 149 L 9.375 149 Z M 9.375 2 " clip-rule="nonzero"/></clipPath></defs><g clip-path="url(#d0bc1a273c)"><path fill="#da0941" d="M 9.519531 104.394531 L 9.519531 46.777344 C 9.519531 45.414062 9.699219 44.070312 10.050781 42.75 C 10.40625 41.433594 10.921875 40.183594 11.601562 39 C 12.28125 37.816406 13.101562 36.738281 14.066406 35.769531 C 15.027344 34.800781 16.097656 33.972656 17.273438 33.285156 L 67.164062 4.488281 C 68.351562 3.804688 69.605469 3.289062 70.933594 2.933594 C 72.257812 2.582031 73.605469 2.402344 74.976562 2.402344 C 76.347656 2.402344 77.695312 2.582031 79.019531 2.933594 C 80.34375 3.289062 81.597656 3.804688 82.789062 4.488281 L 132.648438 33.285156 C 133.839844 33.964844 134.917969 34.789062 135.886719 35.753906 C 136.859375 36.71875 137.6875 37.796875 138.375 38.980469 C 139.0625 40.164062 139.585938 41.417969 139.941406 42.738281 C 140.300781 44.0625 140.480469 45.40625 140.480469 46.777344 L 140.480469 104.394531 C 140.480469 105.765625 140.300781 107.113281 139.945312 108.4375 C 139.589844 109.757812 139.066406 111.011719 138.378906 112.199219 C 137.691406 113.382812 136.863281 114.457031 135.890625 115.425781 C 134.917969 116.390625 133.839844 117.214844 132.648438 117.894531 L 82.769531 146.714844 C 81.578125 147.394531 80.320312 147.910156 78.996094 148.261719 C 77.671875 148.613281 76.328125 148.789062 74.957031 148.789062 C 73.585938 148.789062 72.238281 148.613281 70.914062 148.261719 C 69.589844 147.910156 68.332031 147.394531 67.144531 146.714844 L 17.257812 117.882812 C 16.078125 117.195312 15.011719 116.367188 14.050781 115.398438 C 13.089844 114.429688 12.269531 113.355469 11.589844 112.171875 C 10.910156 110.988281 10.398438 109.738281 10.046875 108.417969 C 9.695312 107.101562 9.519531 105.761719 9.519531 104.394531 Z M 9.519531 104.394531 " fill-opacity="1" fill-rule="nonzero"/></g><path stroke-linecap="round" transform="matrix(-1.814169, 6.77057, -6.773282, -1.814896, 84.874347, 42.563364)" fill="none" stroke-linejoin="miter" d="M 0.500024 -0.000225857 L 9.254615 -0.000150974 " stroke="#ffffff" stroke-width="1" stroke-opacity="1" stroke-miterlimit="4"/><path stroke-linecap="round" transform="matrix(-5.409073, 4.48653, -4.503101, -5.429052, 59.201842, 49.512856)" fill="none" stroke-linejoin="miter" d="M 0.500286 -0.0000749486 L 5.736605 0.000055996 " stroke="#ffffff" stroke-width="1" stroke-opacity="1" stroke-miterlimit="4"/><path stroke-linecap="round" transform="matrix(-5.390198, -4.50919, 4.525845, -5.410107, 59.148382, 102.578125)" fill="none" stroke-linejoin="miter" d="M 0.499954 -0.0000893036 L 5.736624 -0.0000628697 " stroke="#ffffff" stroke-width="1" stroke-opacity="1" stroke-miterlimit="4"/><path stroke-linecap="round" transform="matrix(5.409073, -4.48653, 4.503101, 5.429052, 92.915386, 102.632091)" fill="none" stroke-linejoin="miter" d="M 0.499965 0.000302257 L 5.736638 0.00000694726 " stroke="#ffffff" stroke-width="1" stroke-opacity="1" stroke-miterlimit="4"/><path stroke-linecap="round" transform="matrix(5.390198, 4.50919, -4.525845, 5.410107, 92.968846, 49.56681)" fill="none" stroke-linejoin="miter" d="M 0.499913 -0.000129534 L 5.736582 -0.000103101 " stroke="#ffffff" stroke-width="1" stroke-opacity="1" stroke-miterlimit="4"/></svg>